# xmcd
#
# Track frame offsets:
#	182
#	14347
#	29767
#	40650
#	55887
#	69662
#	82470
#	96717
#	110040
#	123417
#	135910
#	146470
#
# Disc length: 2097 seconds
#
# Revision: 1
# Processed by: cddbd v1.5.2PL0 Copyright (c) Steve Scherf et al.
# Submitted via: audiograbber 1.83.01
#
DISCID=b3082f0c
DTITLE=Dionne Warwick - Make Way For Dionne Warwick
DYEAR=1964
DGENRE=Blues
TTITLE0=A House Is Not A Home
TTITLE1=People
TTITLE2=They Long To Be Close To You
TTITLE3=The Last One To Be Loved
TTITLE4=Land Of Make Believe
TTITLE5=Reach Out For Me
TTITLE6=You'll Never Get To Heaven
TTITLE7=Walk On By
TTITLE8=Wishin' And Hopin'
TTITLE9=I Smiled Yesterday
TTITLE10=Get Rid Of Him
TTITLE11=Make The Night A Little Longer
EXTD=
EXTT0=
EXTT1=
EXTT2=
EXTT3=
EXTT4=
EXTT5=
EXTT6=
EXTT7=
EXTT8=
EXTT9=
EXTT10=
EXTT11=
PLAYORDER=
